<mxfile host="Electron" agent="Mozilla/5.0 (Windows NT 10.0; Win64; x64) AppleWebKit/537.36 (KHTML, like Gecko) draw.io/26.2.2 Chrome/134.0.6998.178 Electron/35.1.2 Safari/537.36" version="26.2.2">
  <diagram id="order_level1_dfd" name="订单模块Level1数据流图">
    <mxGraphModel dx="1471" dy="873" grid="1" gridSize="10" guides="1" tooltips="1" connect="1" arrows="1" fold="1" page="1" pageScale="1" pageWidth="2339" pageHeight="1654" math="0" shadow="0">
      <root>
        <mxCell id="0" />
        <mxCell id="1" parent="0" />
        <mxCell id="entity-user" value="用户 (User)" style="shape=rectangle;rounded=1;whiteSpace=wrap;html=1;fontSize=12;fontStyle=1;fillColor=#dae8fc;strokeColor=#6c8ebf;" parent="1" vertex="1">
          <mxGeometry x="40" y="80" width="140" height="60" as="geometry" />
        </mxCell>
        <mxCell id="entity-host" value="房东 (Host)" style="shape=rectangle;rounded=1;whiteSpace=wrap;html=1;fontSize=12;fontStyle=1;fillColor=#dae8fc;strokeColor=#6c8ebf;" parent="1" vertex="1">
          <mxGeometry x="40" y="460" width="140" height="60" as="geometry" />
        </mxCell>
        <mxCell id="entity-admin" value="管理员 (Admin)" style="shape=rectangle;rounded=1;whiteSpace=wrap;html=1;fontSize=12;fontStyle=1;fillColor=#dae8fc;strokeColor=#6c8ebf;" parent="1" vertex="1">
          <mxGeometry x="40" y="780" width="140" height="60" as="geometry" />
        </mxCell>
        <mxCell id="entity-email" value="邮件服务" style="shape=rectangle;rounded=1;whiteSpace=wrap;html=1;fontSize=12;fontStyle=1;fillColor=#dae8fc;strokeColor=#6c8ebf;" parent="1" vertex="1">
          <mxGeometry x="1320" y="620" width="120" height="50" as="geometry" />
        </mxCell>
        <mxCell id="process-create" value="1.0&#xa;创建订单" style="ellipse;whiteSpace=wrap;html=1;aspect=fixed;fontSize=12;verticalAlign=middle;fillColor=#f8cecc;strokeColor=#b85450;" parent="1" vertex="1">
          <mxGeometry x="360" y="150" width="120" height="120" as="geometry" />
        </mxCell>
        <mxCell id="process-query" value="2.0&#xa;查询订单" style="ellipse;whiteSpace=wrap;html=1;aspect=fixed;fontSize=12;verticalAlign=middle;fillColor=#f8cecc;strokeColor=#b85450;" parent="1" vertex="1">
          <mxGeometry x="660" y="390" width="120" height="120" as="geometry" />
        </mxCell>
        <mxCell id="process-update" value="3.0&#xa;更新订单状态" style="ellipse;whiteSpace=wrap;html=1;aspect=fixed;fontSize=12;verticalAlign=middle;fillColor=#f8cecc;strokeColor=#b85450;" parent="1" vertex="1">
          <mxGeometry x="360" y="630" width="120" height="120" as="geometry" />
        </mxCell>
        <mxCell id="process-payment" value="4.0&#xa;处理支付" style="ellipse;whiteSpace=wrap;html=1;aspect=fixed;fontSize=12;verticalAlign=middle;fillColor=#f8cecc;strokeColor=#b85450;" parent="1" vertex="1">
          <mxGeometry x="660" y="150" width="120" height="120" as="geometry" />
        </mxCell>
        <mxCell id="process-notify" value="5.0&#xa;发送订单通知" style="ellipse;whiteSpace=wrap;html=1;aspect=fixed;fontSize=12;verticalAlign=middle;fillColor=#f8cecc;strokeColor=#b85450;" parent="1" vertex="1">
          <mxGeometry x="1040" y="620" width="120" height="120" as="geometry" />
        </mxCell>
        <mxCell id="ds-orders" value="D1 订单数据" style="shape=partialRectangle;whiteSpace=wrap;html=1;left=0;right=0;fontSize=11;fontStyle=1;fillColor=#fff2cc;strokeColor=#d6b656;" parent="1" vertex="1">
          <mxGeometry x="660" y="630" width="120" height="50" as="geometry" />
        </mxCell>
        <mxCell id="ds-users" value="D2 用户数据" style="shape=partialRectangle;whiteSpace=wrap;html=1;left=0;right=0;fontSize=11;fontStyle=1;fillColor=#fff2cc;strokeColor=#d6b656;" parent="1" vertex="1">
          <mxGeometry x="360" y="390" width="120" height="50" as="geometry" />
        </mxCell>
        <mxCell id="ds-homestays" value="D3 房源数据" style="shape=partialRectangle;whiteSpace=wrap;html=1;left=0;right=0;fontSize=11;fontStyle=1;fillColor=#fff2cc;strokeColor=#d6b656;" parent="1" vertex="1">
          <mxGeometry x="360" y="40" width="120" height="50" as="geometry" />
        </mxCell>
        <mxCell id="ds-payments" value="D4 支付数据" style="shape=partialRectangle;whiteSpace=wrap;html=1;left=0;right=0;fontSize=11;fontStyle=1;fillColor=#fff2cc;strokeColor=#d6b656;" parent="1" vertex="1">
          <mxGeometry x="940" y="150" width="120" height="50" as="geometry" />
        </mxCell>
        <mxCell id="flow-user-create" value="预订请求" style="endArrow=classic;html=1;rounded=0;fontSize=9;" parent="1" source="entity-user" target="process-create" edge="1">
          <mxGeometry relative="1" as="geometry" />
        </mxCell>
        <mxCell id="flow-user-pay" value="支付信息" style="endArrow=classic;html=1;rounded=0;fontSize=9;" parent="1" source="entity-user" target="process-payment" edge="1">
          <mxGeometry relative="1" as="geometry">
            <Array as="points">
              <mxPoint x="280" y="110" />
              <mxPoint x="280" y="210" />
            </Array>
          </mxGeometry>
        </mxCell>
        <mxCell id="flow-user-query" value="订单查询请求" style="endArrow=classic;html=1;rounded=0;fontSize=9;" parent="1" source="entity-user" target="process-query" edge="1">
          <mxGeometry relative="1" as="geometry">
            <Array as="points">
              <mxPoint x="260" y="140" />
              <mxPoint x="260" y="450" />
            </Array>
          </mxGeometry>
        </mxCell>
        <mxCell id="flow-user-cancel" value="取消订单请求" style="endArrow=classic;html=1;rounded=0;fontSize=9;" parent="1" source="entity-user" target="process-update" edge="1">
          <mxGeometry x="-0.0389" relative="1" as="geometry">
            <Array as="points">
              <mxPoint x="240" y="140" />
              <mxPoint x="240" y="690" />
            </Array>
            <mxPoint as="offset" />
          </mxGeometry>
        </mxCell>
        <mxCell id="flow-create-user" value="订单确认信息" style="endArrow=classic;html=1;rounded=0;fontSize=9;" parent="1" source="process-create" target="entity-user" edge="1">
          <mxGeometry relative="1" as="geometry">
            <Array as="points">
              <mxPoint x="280" y="210" />
              <mxPoint x="280" y="140" />
            </Array>
          </mxGeometry>
        </mxCell>
        <mxCell id="flow-pay-user" value="支付结果" style="endArrow=classic;html=1;rounded=0;fontSize=9;" parent="1" source="process-payment" target="entity-user" edge="1">
          <mxGeometry relative="1" as="geometry">
            <Array as="points">
              <mxPoint x="600" y="110" />
            </Array>
          </mxGeometry>
        </mxCell>
        <mxCell id="flow-query-user" value="订单列表/详情" style="endArrow=classic;html=1;rounded=0;fontSize=9;" parent="1" source="process-query" target="entity-user" edge="1">
          <mxGeometry relative="1" as="geometry">
            <Array as="points">
              <mxPoint x="320" y="450" />
              <mxPoint x="320" y="140" />
            </Array>
          </mxGeometry>
        </mxCell>
        <mxCell id="flow-update-user" value="订单状态更新通知" style="endArrow=classic;html=1;rounded=0;fontSize=9;" parent="1" source="process-update" target="entity-user" edge="1">
          <mxGeometry relative="1" as="geometry">
            <Array as="points">
              <mxPoint x="300" y="690" />
              <mxPoint x="300" y="140" />
            </Array>
          </mxGeometry>
        </mxCell>
        <mxCell id="flow-host-query" value="名下订单查询" style="endArrow=classic;html=1;rounded=0;fontSize=9;" parent="1" source="entity-host" target="process-query" edge="1">
          <mxGeometry relative="1" as="geometry" />
        </mxCell>
        <mxCell id="flow-host-update" value="确认/拒绝/取消订单, 更新入住状态" style="endArrow=classic;html=1;rounded=0;fontSize=9;" parent="1" source="entity-host" target="process-update" edge="1">
          <mxGeometry relative="1" as="geometry">
            <Array as="points">
              <mxPoint x="260" y="490" />
              <mxPoint x="260" y="690" />
            </Array>
          </mxGeometry>
        </mxCell>
        <mxCell id="flow-query-host" value="名下订单列表/详情" style="endArrow=classic;html=1;rounded=0;fontSize=9;" parent="1" source="process-query" target="entity-host" edge="1">
          <mxGeometry relative="1" as="geometry">
            <Array as="points">
              <mxPoint x="600" y="490" />
            </Array>
          </mxGeometry>
        </mxCell>
        <mxCell id="flow-update-host" value="订单状态更新通知" style="endArrow=classic;html=1;rounded=0;fontSize=9;" parent="1" source="process-update" target="entity-host" edge="1">
          <mxGeometry relative="1" as="geometry">
            <Array as="points">
              <mxPoint x="320" y="690" />
              <mxPoint x="320" y="520" />
            </Array>
          </mxGeometry>
        </mxCell>
        <mxCell id="flow-admin-query" value="所有订单查询" style="endArrow=classic;html=1;rounded=0;fontSize=9;" parent="1" source="entity-admin" target="process-query" edge="1">
          <mxGeometry relative="1" as="geometry">
            <Array as="points">
              <mxPoint x="280" y="810" />
              <mxPoint x="280" y="450" />
            </Array>
          </mxGeometry>
        </mxCell>
        <mxCell id="flow-admin-update" value="更新状态, 手动确认支付, 退款, 删除, 导出" style="endArrow=classic;html=1;rounded=0;fontSize=9;" parent="1" source="entity-admin" target="process-update" edge="1">
          <mxGeometry relative="1" as="geometry" />
        </mxCell>
        <mxCell id="flow-query-admin" value="所有订单列表/详情" style="endArrow=classic;html=1;rounded=0;fontSize=9;" parent="1" source="process-query" target="entity-admin" edge="1">
          <mxGeometry relative="1" as="geometry">
            <Array as="points">
              <mxPoint x="600" y="810" />
            </Array>
          </mxGeometry>
        </mxCell>
        <mxCell id="flow-update-admin" value="操作结果/通知" style="endArrow=classic;html=1;rounded=0;fontSize=9;" parent="1" source="process-update" target="entity-admin" edge="1">
          <mxGeometry relative="1" as="geometry">
            <Array as="points">
              <mxPoint x="300" y="750" />
              <mxPoint x="300" y="810" />
            </Array>
          </mxGeometry>
        </mxCell>
        <mxCell id="flow-create-hs" value="房源可用性/信息" style="endArrow=classic;html=1;rounded=0;fontSize=9;" parent="1" source="process-create" target="ds-homestays" edge="1">
          <mxGeometry relative="1" as="geometry">
            <Array as="points">
              <mxPoint x="420" y="120" />
            </Array>
          </mxGeometry>
        </mxCell>
        <mxCell id="flow-create-userds" value="用户信息" style="endArrow=classic;html=1;rounded=0;fontSize=9;" parent="1" source="process-create" target="ds-users" edge="1">
          <mxGeometry relative="1" as="geometry">
            <Array as="points">
              <mxPoint x="420" y="300" />
            </Array>
          </mxGeometry>
        </mxCell>
        <mxCell id="flow-create-orderds" value="新订单数据" style="endArrow=classic;html=1;rounded=0;fontSize=9;" parent="1" source="process-create" target="ds-orders" edge="1">
          <mxGeometry relative="1" as="geometry">
            <Array as="points">
              <mxPoint x="580" y="210" />
              <mxPoint x="580" y="655" />
            </Array>
          </mxGeometry>
        </mxCell>
        <mxCell id="flow-pay-orderds" value="支付状态更新" style="endArrow=classic;html=1;rounded=0;fontSize=9;" parent="1" source="process-payment" target="ds-orders" edge="1">
          <mxGeometry x="-0.5556" relative="1" as="geometry">
            <Array as="points">
              <mxPoint x="720" y="300" />
              <mxPoint x="720" y="600" />
            </Array>
            <mxPoint as="offset" />
          </mxGeometry>
        </mxCell>
        <mxCell id="flow-pay-paymentds" value="支付记录" style="endArrow=classic;html=1;rounded=0;fontSize=9;" parent="1" source="process-payment" target="ds-payments" edge="1">
          <mxGeometry relative="1" as="geometry" />
        </mxCell>
        <mxCell id="flow-query-orderds" value="订单数据" style="endArrow=classic;html=1;rounded=0;fontSize=9;" parent="1" source="ds-orders" target="process-query" edge="1">
          <mxGeometry relative="1" as="geometry">
            <Array as="points">
              <mxPoint x="720" y="540" />
            </Array>
          </mxGeometry>
        </mxCell>
        <mxCell id="flow-query-userds" value="用户信息" style="endArrow=classic;html=1;rounded=0;fontSize=9;" parent="1" source="ds-users" target="process-query" edge="1">
          <mxGeometry relative="1" as="geometry">
            <Array as="points">
              <mxPoint x="580" y="415" />
            </Array>
          </mxGeometry>
        </mxCell>
        <mxCell id="flow-query-hs" value="房源信息" style="endArrow=classic;html=1;rounded=0;fontSize=9;" parent="1" source="ds-homestays" target="process-query" edge="1">
          <mxGeometry relative="1" as="geometry">
            <Array as="points">
              <mxPoint x="580" y="65" />
              <mxPoint x="580" y="450" />
            </Array>
          </mxGeometry>
        </mxCell>
        <mxCell id="flow-update-orderds" value="订单状态/数据更新" style="endArrow=classic;html=1;rounded=0;fontSize=9;" parent="1" source="process-update" target="ds-orders" edge="1">
          <mxGeometry relative="1" as="geometry">
            <Array as="points">
              <mxPoint x="580" y="690" />
            </Array>
          </mxGeometry>
        </mxCell>
        <mxCell id="flow-update-hs" value="库存更新" style="endArrow=classic;html=1;rounded=0;fontSize=9;" parent="1" source="process-update" target="ds-homestays" edge="1">
          <mxGeometry relative="1" as="geometry">
            <Array as="points">
              <mxPoint x="420" y="580" />
              <mxPoint x="420" y="120" />
            </Array>
          </mxGeometry>
        </mxCell>
        <mxCell id="flow-create-pay" value="待支付订单" style="endArrow=classic;html=1;rounded=0;fontSize=9;" parent="1" source="process-create" target="process-payment" edge="1">
          <mxGeometry relative="1" as="geometry" />
        </mxCell>
        <mxCell id="flow-update-notify" value="通知内容" style="endArrow=classic;html=1;rounded=0;fontSize=9;" parent="1" source="process-update" target="process-notify" edge="1">
          <mxGeometry relative="1" as="geometry">
            <Array as="points">
              <mxPoint x="580" y="690" />
            </Array>
          </mxGeometry>
        </mxCell>
        <mxCell id="flow-pay-notify" value="支付成功通知" style="endArrow=classic;html=1;rounded=0;fontSize=9;" parent="1" source="process-payment" target="process-notify" edge="1">
          <mxGeometry relative="1" as="geometry">
            <Array as="points">
              <mxPoint x="880" y="210" />
              <mxPoint x="880" y="680" />
            </Array>
          </mxGeometry>
        </mxCell>
        <mxCell id="flow-notify-email" value="邮件发送请求" style="endArrow=classic;html=1;rounded=0;fontSize=9;" parent="1" source="process-notify" target="entity-email" edge="1">
          <mxGeometry relative="1" as="geometry" />
        </mxCell>
      </root>
    </mxGraphModel>
  </diagram>
</mxfile>
